<svg width="1252" height="344" viewBox="0 0 1252 344" fill="none" xmlns="http://www.w3.org/2000/svg">
<ellipse cx="163.5" cy="172" rx="163.5" ry="172" fill="#2932CA"/>
<circle cx="163.5" cy="171.5" r="125.5" fill="white"/>
<ellipse cx="163" cy="172" rx="76" ry="79" fill="#C14F1E"/>
<path d="M520.284 178.273C520.284 194.466 517.135 208.126 510.838 219.253C504.541 230.332 496.042 238.737 485.341 244.466C474.64 250.148 462.708 252.989 449.545 252.989C436.288 252.989 424.309 250.124 413.608 244.395C402.955 238.618 394.479 230.19 388.182 219.111C381.932 207.984 378.807 194.371 378.807 178.273C378.807 162.08 381.932 148.443 388.182 137.364C394.479 126.237 402.955 117.832 413.608 112.151C424.309 106.421 436.288 103.557 449.545 103.557C462.708 103.557 474.64 106.421 485.341 112.151C496.042 117.832 504.541 126.237 510.838 137.364C517.135 148.443 520.284 162.08 520.284 178.273ZM479.659 178.273C479.659 169.561 478.499 162.222 476.179 156.256C473.906 150.242 470.521 145.697 466.023 142.619C461.572 139.494 456.08 137.932 449.545 137.932C443.011 137.932 437.495 139.494 432.997 142.619C428.546 145.697 425.161 150.242 422.841 156.256C420.568 162.222 419.432 169.561 419.432 178.273C419.432 186.985 420.568 194.348 422.841 200.361C425.161 206.327 428.546 210.872 432.997 213.997C437.495 217.075 443.011 218.614 449.545 218.614C456.08 218.614 461.572 217.075 466.023 213.997C470.521 210.872 473.906 206.327 476.179 200.361C478.499 194.348 479.659 186.985 479.659 178.273Z" fill="#2932CA"/>
<path d="M520.284 178.273C520.284 194.466 517.135 208.126 510.838 219.253C504.541 230.332 496.042 238.737 485.341 244.466C474.64 250.148 462.708 252.989 449.545 252.989C436.288 252.989 424.309 250.124 413.608 244.395C402.955 238.618 394.479 230.19 388.182 219.111C381.932 207.984 378.807 194.371 378.807 178.273C378.807 162.08 381.932 148.443 388.182 137.364C394.479 126.237 402.955 117.832 413.608 112.151C424.309 106.421 436.288 103.557 449.545 103.557C462.708 103.557 474.64 106.421 485.341 112.151C496.042 117.832 504.541 126.237 510.838 137.364C517.135 148.443 520.284 162.08 520.284 178.273ZM479.659 178.273C479.659 169.561 478.499 162.222 476.179 156.256C473.906 150.242 470.521 145.697 466.023 142.619C461.572 139.494 456.08 137.932 449.545 137.932C443.011 137.932 437.495 139.494 432.997 142.619C428.546 145.697 425.161 150.242 422.841 156.256C420.568 162.222 419.432 169.561 419.432 178.273C419.432 186.985 420.568 194.348 422.841 200.361C425.161 206.327 428.546 210.872 432.997 213.997C437.495 217.075 443.011 218.614 449.545 218.614C456.08 218.614 461.572 217.075 466.023 213.997C470.521 210.872 473.906 206.327 476.179 200.361C478.499 194.348 479.659 186.985 479.659 178.273Z" fill="black" fill-opacity="0.2"/>
<path d="M568.555 251V105.545H631.339C642.134 105.545 651.58 107.51 659.677 111.44C667.773 115.37 674.071 121.028 678.569 128.415C683.067 135.801 685.316 144.655 685.316 154.977C685.316 165.394 682.996 174.177 678.356 181.327C673.763 188.476 667.3 193.874 658.967 197.52C650.681 201.166 640.998 202.989 629.918 202.989H592.418V172.307H621.964C626.604 172.307 630.558 171.739 633.825 170.602C637.139 169.419 639.672 167.548 641.424 164.991C643.223 162.435 644.123 159.097 644.123 154.977C644.123 150.811 643.223 147.425 641.424 144.821C639.672 142.17 637.139 140.228 633.825 138.997C630.558 137.719 626.604 137.08 621.964 137.08H608.043V251H568.555ZM653.782 184.239L690.146 251H647.248L611.737 184.239H653.782Z" fill="black"/>
<path d="M568.555 251V105.545H631.339C642.134 105.545 651.58 107.51 659.677 111.44C667.773 115.37 674.071 121.028 678.569 128.415C683.067 135.801 685.316 144.655 685.316 154.977C685.316 165.394 682.996 174.177 678.356 181.327C673.763 188.476 667.3 193.874 658.967 197.52C650.681 201.166 640.998 202.989 629.918 202.989H592.418V172.307H621.964C626.604 172.307 630.558 171.739 633.825 170.602C637.139 169.419 639.672 167.548 641.424 164.991C643.223 162.435 644.123 159.097 644.123 154.977C644.123 150.811 643.223 147.425 641.424 144.821C639.672 142.17 637.139 140.228 633.825 138.997C630.558 137.719 626.604 137.08 621.964 137.08H608.043V251H568.555ZM653.782 184.239L690.146 251H647.248L611.737 184.239H653.782Z" fill="#C14F1E"/>
<path d="M732.148 105.545H781.296L815.103 187.932H816.808L850.614 105.545H899.762V251H861.126V166.909H859.989L827.603 249.864H804.308L771.921 166.341H770.785V251H732.148V105.545Z" fill="#2932CA"/>
<path d="M732.148 105.545H781.296L815.103 187.932H816.808L850.614 105.545H899.762V251H861.126V166.909H859.989L827.603 249.864H804.308L771.921 166.341H770.785V251H732.148V105.545Z" fill="#2932CA"/>
</svg>
